<?xml version="1.0" encoding="UTF-8" ?>
<!DOCTYPE svg PUBLIC "-//W3C//DTD SVG 1.1//EN" "http://www.w3.org/Graphics/SVG/1.1/DTD/svg11.dtd">
<svg width="1842pt" height="549pt" viewBox="0 0 1842 549" version="1.1" xmlns="http://www.w3.org/2000/svg">
<g id="#ffffffff">
</g>
<g id="#4ebdeaff">
<path fill="#4ebdea" opacity="1.00" d=" M 272.74 46.68 C 284.81 45.90 296.89 44.72 309.01 45.14 C 350.65 46.35 392.34 52.71 431.80 66.31 C 472.12 80.15 510.30 101.29 541.70 130.31 C 568.19 155.08 589.81 185.93 600.29 220.89 C 605.18 237.11 607.54 254.07 607.32 271.02 C 608.11 307.30 597.64 343.98 576.70 373.73 C 565.69 389.43 551.60 402.99 535.38 413.24 C 508.09 431.20 485.36 455.97 469.77 484.68 C 463.25 496.67 453.90 506.79 444.14 516.21 C 443.90 480.37 450.82 444.13 466.87 411.93 C 471.28 402.94 476.74 394.53 481.93 385.99 C 491.77 370.26 506.28 357.58 513.38 340.15 C 519.94 325.35 519.55 308.81 519.44 292.96 C 520.26 246.77 500.75 200.56 466.95 169.04 C 462.99 165.27 458.52 162.06 454.63 158.20 C 476.52 165.34 498.42 172.61 519.48 181.98 C 488.23 150.89 449.47 127.99 408.32 112.62 C 369.27 97.95 327.69 90.55 286.06 89.08 C 229.39 87.51 172.05 97.20 119.94 119.89 C 79.63 137.53 42.43 163.21 13.76 196.78 C 11.03 200.14 8.51 203.72 5.17 206.52 C 29.70 161.01 67.58 123.36 111.59 96.56 C 160.16 67.01 216.27 51.11 272.74 46.68 Z" />
</g>
<g id="#4c829aff">
<path fill="#4c829a" opacity="1.00" d=" M 172.61 151.57 C 210.42 135.39 252.23 129.84 293.11 132.39 C 335.87 135.20 378.58 148.20 413.58 173.37 C 431.96 186.32 446.29 204.18 457.83 223.30 C 386.40 165.86 287.94 144.76 199.00 166.14 C 162.27 175.26 125.78 188.90 95.97 212.80 C 114.38 185.05 142.11 164.39 172.61 151.57 Z" />
</g>
<g id="#333333ff">
<path fill="#333333" opacity="1.00" d=" M 1124.28 175.29 C 1129.40 173.91 1134.77 174.71 1140.02 174.49 C 1144.25 174.60 1149.38 173.99 1152.54 177.45 C 1155.78 181.18 1154.64 186.47 1154.86 191.00 C 1154.63 195.40 1155.68 200.28 1153.18 204.22 C 1151.20 207.21 1147.36 207.96 1144.02 207.87 C 1138.31 207.79 1132.59 208.04 1126.89 207.73 C 1122.74 207.57 1119.14 204.19 1118.90 200.02 C 1118.52 194.69 1118.77 189.34 1118.75 184.01 C 1118.60 180.34 1120.57 176.38 1124.28 175.29 Z" />
<path fill="#333333" opacity="1.00" d=" M 734.54 193.45 C 746.43 181.54 763.90 177.95 780.11 176.86 C 800.30 175.94 820.78 177.13 840.40 182.26 C 839.46 191.18 838.48 200.09 837.53 209.00 C 823.04 208.48 808.55 207.90 794.04 207.87 C 786.53 207.97 778.72 207.76 771.62 210.60 C 763.58 214.18 758.77 222.50 757.28 230.90 C 756.29 237.22 755.66 243.61 755.44 250.00 C 754.94 266.07 754.60 282.46 758.64 298.15 C 760.36 305.45 765.58 312.23 773.13 314.03 C 786.02 317.20 799.52 313.07 810.87 306.88 C 810.91 287.49 810.85 268.10 810.90 248.70 C 822.64 248.67 834.37 248.73 846.10 248.68 C 846.10 280.12 846.11 311.56 846.10 343.00 C 837.17 342.98 828.24 343.05 819.31 342.96 C 818.28 337.59 817.16 332.24 816.14 326.88 C 806.03 337.17 792.45 344.01 778.07 345.54 C 764.45 347.12 749.40 345.48 738.50 336.44 C 727.09 327.07 722.46 312.22 719.89 298.22 C 716.49 277.65 716.21 256.59 718.37 235.88 C 720.29 220.84 723.77 204.81 734.54 193.45 Z" />
<path fill="#333333" opacity="1.00" d=" M 1485.66 194.70 C 1491.77 185.89 1502.50 181.29 1513.02 181.00 C 1524.01 180.80 1535.01 181.02 1546.01 181.18 C 1566.25 181.81 1586.51 181.34 1606.76 181.53 C 1612.75 205.69 1618.86 229.83 1624.90 253.98 C 1630.05 274.95 1635.70 295.80 1640.18 316.93 C 1641.88 316.92 1643.60 316.91 1645.34 316.90 C 1649.69 296.14 1655.27 275.67 1660.33 255.08 C 1666.47 230.56 1672.64 206.04 1678.76 181.51 C 1708.51 181.48 1738.26 181.50 1768.02 181.50 C 1775.67 181.57 1783.35 181.26 1791.00 181.90 C 1791.00 191.30 1791.00 200.69 1791.00 210.09 C 1763.26 210.27 1735.51 210.23 1707.77 210.12 C 1703.87 223.23 1700.32 236.45 1696.19 249.49 C 1717.29 249.51 1738.39 249.49 1759.50 249.50 C 1759.50 258.34 1759.50 267.17 1759.50 276.00 C 1735.81 276.05 1712.12 275.90 1688.44 276.07 C 1682.59 298.93 1674.80 321.21 1668.72 344.00 C 1654.48 344.01 1640.23 343.98 1626.00 344.01 C 1620.47 344.37 1615.46 340.06 1614.00 334.90 C 1601.85 293.31 1589.90 251.67 1577.72 210.09 C 1561.13 210.34 1544.53 210.11 1527.93 210.21 C 1524.78 210.24 1521.29 210.70 1518.96 213.03 C 1516.72 215.37 1516.24 218.79 1516.23 221.90 C 1516.21 231.10 1516.24 240.30 1516.22 249.49 C 1533.85 249.51 1551.49 249.48 1569.12 249.51 C 1570.63 258.34 1572.14 267.17 1573.65 276.00 C 1554.51 276.00 1535.36 275.99 1516.22 276.00 C 1516.23 298.67 1516.22 321.33 1516.22 344.00 C 1504.14 344.00 1492.06 344.00 1479.98 344.00 C 1479.97 301.00 1479.98 258.00 1479.97 215.00 C 1479.89 207.89 1481.50 200.57 1485.66 194.70 Z" />
<path fill="#333333" opacity="1.00" d=" M 888.69 226.80 C 901.67 222.63 915.55 222.36 929.05 223.24 C 939.88 224.18 951.22 226.21 960.14 232.83 C 968.34 238.94 972.62 249.04 973.30 259.04 C 974.07 268.75 972.79 279.54 965.99 287.04 C 959.41 294.12 949.20 295.97 939.96 296.24 C 925.22 296.32 910.49 296.24 895.76 296.27 C 896.63 302.04 897.98 308.30 902.43 312.43 C 906.75 316.04 912.61 316.94 918.06 317.41 C 934.40 317.92 950.73 316.61 966.98 314.95 C 968.10 322.28 969.18 329.61 970.28 336.94 C 952.72 344.96 932.94 345.88 913.92 345.57 C 899.29 344.94 883.32 342.21 872.47 331.52 C 862.07 320.83 859.31 305.24 858.60 290.90 C 858.18 275.39 858.81 259.06 865.99 244.97 C 870.50 235.95 879.23 229.77 888.69 226.80 M 899.35 255.41 C 895.88 261.27 895.54 268.32 895.09 274.95 C 906.77 274.90 918.46 275.09 930.14 274.86 C 933.73 274.86 937.27 272.58 938.07 268.94 C 939.28 263.70 939.38 257.49 936.02 253.00 C 931.63 248.55 924.75 248.62 918.94 248.47 C 912.03 248.53 903.63 249.18 899.35 255.41 Z" />
<path fill="#333333" opacity="1.00" d=" M 1017.41 243.22 C 1029.45 233.59 1043.41 225.61 1058.88 223.43 C 1067.95 222.26 1077.74 222.52 1085.95 227.01 C 1092.37 230.49 1096.93 236.88 1098.65 243.93 C 1100.44 250.46 1099.94 257.29 1100.00 263.99 C 1100.00 290.33 1100.00 316.66 1100.00 343.00 C 1088.33 343.00 1076.66 343.00 1065.00 343.00 C 1064.99 316.98 1065.01 290.96 1064.99 264.94 C 1064.84 261.30 1064.60 256.92 1061.48 254.50 C 1057.58 251.91 1052.56 252.46 1048.18 253.15 C 1038.84 255.00 1030.11 259.02 1021.61 263.18 C 1021.59 289.79 1021.60 316.39 1021.61 342.99 C 1009.86 343.01 998.12 343.00 986.38 342.99 C 986.40 304.07 986.37 265.15 986.40 226.22 C 995.89 226.16 1005.38 226.28 1014.88 226.16 C 1015.69 231.85 1016.57 237.53 1017.41 243.22 Z" />
<path fill="#333333" opacity="1.00" d=" M 1322.12 225.35 C 1333.86 222.60 1346.03 222.63 1358.02 223.06 C 1372.83 223.58 1387.65 224.74 1402.24 227.40 C 1401.52 234.98 1400.66 242.54 1399.92 250.12 C 1382.28 249.99 1364.65 249.49 1347.02 249.63 C 1343.03 249.78 1338.91 249.80 1335.12 251.16 C 1332.05 252.38 1332.71 256.40 1332.81 259.03 C 1333.31 263.37 1337.96 264.56 1341.47 265.60 C 1353.12 268.40 1364.65 271.72 1376.23 274.80 C 1384.36 277.10 1392.68 280.14 1398.92 286.07 C 1404.74 291.73 1406.50 300.18 1406.65 308.01 C 1406.78 316.44 1405.69 325.50 1400.44 332.41 C 1396.25 337.94 1389.50 340.62 1382.98 342.25 C 1371.86 344.95 1360.34 345.22 1348.95 345.12 C 1332.81 344.95 1316.65 343.78 1300.72 341.10 C 1301.37 333.43 1302.10 325.77 1302.80 318.11 C 1319.54 318.55 1336.30 318.75 1353.05 318.50 C 1358.22 318.19 1363.61 318.36 1368.56 316.55 C 1373.03 314.87 1373.84 308.31 1370.93 304.94 C 1366.97 301.76 1361.77 301.17 1357.02 299.93 C 1347.01 297.22 1336.99 294.58 1326.99 291.85 C 1319.02 289.48 1310.84 286.16 1305.28 279.72 C 1300.03 273.42 1298.61 264.92 1298.51 256.95 C 1298.42 249.22 1299.84 241.01 1304.85 234.86 C 1309.08 229.54 1315.69 226.92 1322.12 225.35 Z" />
<path fill="#333333" opacity="1.00" d=" M 1119.37 226.01 C 1131.02 225.99 1142.68 226.00 1154.33 226.00 C 1154.27 264.94 1154.46 303.88 1154.24 342.81 C 1142.62 342.80 1131.01 342.83 1119.39 342.79 C 1119.35 303.86 1119.39 264.94 1119.37 226.01 Z" />
<path fill="#333333" opacity="1.00" d=" M 1173.46 225.95 C 1185.19 225.94 1196.93 225.94 1208.67 225.96 C 1208.67 251.97 1208.67 277.99 1208.67 304.01 C 1208.70 307.73 1209.19 312.20 1212.64 314.39 C 1217.22 317.08 1222.92 316.48 1227.91 315.43 C 1235.65 313.59 1242.90 310.17 1249.99 306.63 C 1250.01 279.74 1249.99 252.84 1250.00 225.95 C 1261.70 225.95 1273.40 225.94 1285.11 225.95 C 1285.10 264.90 1285.15 303.85 1285.09 342.81 C 1275.79 342.80 1266.50 342.83 1257.21 342.79 C 1256.26 337.48 1255.49 332.15 1254.60 326.83 C 1241.81 336.88 1226.59 344.79 1210.08 345.69 C 1200.52 346.21 1189.98 344.98 1182.51 338.41 C 1175.71 332.34 1173.48 322.82 1173.46 314.04 C 1173.45 284.68 1173.46 255.31 1173.46 225.95 Z" />
<path fill="#333333" opacity="1.00" d=" M 1684.08 344.00 C 1686.61 335.16 1689.17 326.34 1691.69 317.50 C 1717.99 317.50 1744.28 317.51 1770.58 317.49 C 1770.66 325.09 1768.05 333.08 1761.88 337.87 C 1755.59 343.24 1746.96 344.17 1739.02 344.01 C 1720.70 343.99 1702.39 344.01 1684.08 344.00 Z" />
</g>
<g id="#2e5d71ff">
<path fill="#2e5d71" opacity="1.00" d=" M 100.90 222.92 C 129.93 200.35 165.17 186.27 201.45 180.90 C 200.96 192.29 200.51 203.70 201.23 215.09 C 202.21 243.71 210.57 272.04 225.23 296.64 C 239.55 320.24 256.88 341.81 272.73 364.38 C 276.73 370.31 281.82 375.51 287.81 379.44 C 281.31 379.96 274.54 380.25 268.35 377.85 C 253.28 372.56 241.72 361.10 228.77 352.24 C 204.86 335.22 176.91 324.34 148.17 318.85 C 131.90 315.86 115.70 309.94 102.91 299.18 C 96.33 293.78 91.55 286.62 87.81 279.05 C 78.21 260.35 84.49 235.72 100.90 222.92 Z" />
</g>
<g id="#1173a0ff">
<path fill="#1173a0" opacity="1.00" d=" M 327.88 305.42 C 378.30 301.26 427.48 275.67 457.04 234.14 C 463.33 239.65 465.68 247.98 467.45 255.84 C 473.58 278.35 472.27 303.05 462.59 324.38 C 456.88 337.16 447.76 348.12 437.58 357.60 C 424.04 370.30 406.77 378.40 388.93 383.06 C 370.40 387.90 351.07 388.92 332.00 387.92 C 323.25 387.77 314.24 387.41 306.04 384.02 C 303.13 382.82 300.93 380.49 298.84 378.23 C 289.99 368.52 283.02 357.33 275.31 346.74 C 263.17 328.40 249.37 310.98 240.05 290.94 C 268.16 300.74 297.94 307.45 327.88 305.42 Z" />
<path fill="#1173a0" opacity="1.00" d=" M 378.48 415.59 C 394.20 411.92 411.63 421.81 416.95 436.97 C 421.06 449.00 415.60 463.21 405.06 470.06 C 395.38 476.56 382.40 477.92 371.64 473.40 C 365.41 470.84 360.38 465.95 356.67 460.42 C 349.29 448.38 352.88 431.43 363.82 422.76 C 368.09 419.30 373.20 416.98 378.48 415.59 Z" />
</g>
</svg>
